<mxfile modified="2020-12-16T07:28:40.999Z" host="app.diagrams.net" agent="5.0 (Windows NT 10.0; Win64; x64) AppleWebKit/537.36 (KHTML, like Gecko) Chrome/87.0.4280.88 Safari/537.36 Edg/87.0.664.60" etag="3C7rHGUIeU_9LAfYLzgl" version="13.10.6" type="github">
  <diagram id="Ht1M8jgEwFfnCIfOTk4-" name="Page-1">
    <mxGraphModel dx="1422" dy="794" grid="0" gridSize="10" guides="1" tooltips="1" connect="1" arrows="1" fold="1" page="1" pageScale="1" pageWidth="1169" pageHeight="827" math="0" shadow="0">
      <root>
        <mxCell id="0" />
        <mxCell id="1" parent="0" />
        <mxCell id="f5AfGswBC0HMmKNP3jA8-2" value="" style="shape=image;verticalLabelPosition=bottom;labelBackgroundColor=#ffffff;verticalAlign=top;aspect=fixed;imageAspect=0;image=data:image/png,iVBORw0KGgoAAAANSUhEUgAAAQUAAAB1CAYAAABHw/TkAAAeK0lEQVR4Ae2dBbPdthaF388uJmUIlGEm07Rp0qbMbZqkTZmZmduUmdlvPr/ZmR09wZYswzlXmrlzfG1ZlraktZeWZPk/XQvNAs0CzQLKAv9Rx+2wWaBZoFmga6DQGkGzQLPAURZooHCUOdo/zQLNAg0UWhtoFmgWOMoCDRSOMkf7p1mgWaCBwgZpAwcPHuzOO++87uyzz+52797dvf322xuk5K2YuRZooJBrsRWLf88993SnnHJK9+ijj3a//fZbn/uPPvqou/zyy7szzzyz++eff1asRC27Y1uggcLYFp4x/X379nWXXXZZMAfvv/9+d/LJJwevtwsb0wINFNa03r///vvujDPOSJbu5Zdf7i699NJkvBZh41iggcKa1vWuXbu6d955x1S60047zRSvRdoYFmigsKb1jI5gDbfddlv36quvWqO3eGtugQYKa1rBOVrBQw891D322GNraolWrFwLNFDItdiC4//+++/dN9980zG7cNxxx5lzet1113WHDh3qPv/88+6nn37q/v33X/O9LeL6WaCBworWKR2XDkxHfvfdd7uXXnqp/+MYULj44os7RERLOOGEEzpmIj7++OPujTfe6J599tn+l/8BGcCmhY1jgQYKK1LXmgW4Hffbb7/t/vjjjx4k6NwvvPBCDxAWtsD6hXPOOad7/fXXu1deeaX74osvur/++isIOI1NrEiDGZDNBgoDjDfWrTEW4OuUgMKbb77Zd+pPP/20e++99/pOzsKlbdu2BbMJIzj99NO7Tz75pAcRmIGACseaIXDMcxqbCJpzbS40UFhAVVpYgJtNViICEMwavPXWW32Hheq/+OKLfSeX+M8991y/QOmWW27pOzxM4Omnn+62bNnSDzEk3o8//ti99tprfZxffvml7/wwDkCCa27g+aHhiw+43Pvb/8u1QAOFiesmlwW42QNA8OzPP/9832HpmND9Dz74oGcHvg5MGoDFtdde27F+4cCBA90PP/zgJt3/L6wBgKHjAyIMK2AiMIVYaGwiZp3VudZAYeS6KmEBvizR+YXa03FJl+BjB777c85p1vD333/3twIIMBLRHSzvTDQ2kWP15cRtoFCxLoayAF9WtF6A1+YZBAs78KWXc06zBrlPg5OrO0ic2G9jEzHrLONaA4UB9VCLBbhZwMO6eoGOMwY70OnrYx9r4DplBxREdwAsSkJjEyVWG/eeBgpG+47BAtxH09FcvUDHmYId6OfpYx9r4DqdOkd30GmGjhubCFlmmvMNFAJ2HosF+B6nKbnWC3TcKdmBfq4+DrEGiVOiO8i9sd/GJmLWqX+tgULX9eN0OiaUnTl+vTpwzOm1kF6gq3lOdqDzoY9DrEHiaJAr0R0kndhvYxMx6wy7tiFBYUoW4FZPSi/Q8ZfADnR+9HGKNRAXO9fQHfRzQ8eNTYQsk39+7UFBawFTsgC3KuggMb1Ax18iO9D508cp1kDcMXQHnYfQcWMTIcvEz68dKMzJAnym1lQ6pBfo+5bMDnQ+9bGFNUj8sXQHST/2qx2E+xLZmMPEWJ6WeG2lQUFX8pwswFexFr1A37dK7EDnWx9bWIPE12A5lu4gz4r9Njbx/9apBgp0yiuvvLLfIZhtxFlrzxr6mmFpLMAtW45eoO8dmx2Qr7vuuqvbunVrXz9s5sp7DmOEHNbA86nTqXQHS3m1o5mKTfBiGvtksrv2ueee2917772WrI4WpwooAAI7duzo3+OXnLLWno1Dr7/+ejmV9asrZ2kswC0IDduqF+h7p2AHd999d3fqqad2Tz31VCdLlj/77LNuz549/RuSvHI9RshhDTx/Lt3BUvax2ATrO9g276abbjryXgnPevDBB/uX2J544glL9qrHGQwKbPoZ29/v1ltv7RlEKucYA4/JBiGh/QJSaUx9XVNgi16g8zc2O+BZt99+e9T2eOicbdt0/i3HuaxB0pxTd5A8xH61wyplE999910PCD///HPwUbCGObbJGwQKvHX3yCOPBAslF9gFiLfsJGijLp0FSJ71b65eoO+dgh3wPEAHOpoKDCMuuuiiVLRB13NZgzxMg+6cuoPkJ/abyyZg0V999VUsyf5azga8ycSMEQaBgtXLULkwilViAa79SvUCnc4U7ECexxegAFxLYKOVsUMpayBfdLgl6Q4WW2nH57IJ3jS1AjFMgY/6TBmKQeHLL7+Mfn3ILcTxxx/frxgEIDDYqgQaZIleoMs3FTvQz7QCNvcwzKChThFKWQN5W7LuYLGdsAk2ymWjG2tAs5syFIMC6HfjjTea88rmoDS8Vfmj0tjODE3k/vvv7zc1Kck7SE+ne+CBByYt+7HHHmuuG4QthoIl5Su558knn+xnQ7AvgnRJGo8//ni3f//+7o477ugefvjhfml6STpz3MNMg/VDPVTi1B/rKQYFPkt2ySWXmBsejZTdgRhH/frrr+b7po44RC/QeZ2DHfAB2a+//rofpuWAAp6LaTBmJaD5MkuhyzPG8RDWIPlZFd2B9kCfYQ9NAJgNcy0BdrF9+3ZL1GpxikGBHJx00kmmjBw+fLifnvzwww97YGC2gvfw+Rw6RmJrsKkaoi/DohfgNWS/Q18867kptAPshd2wH15HPC67M6Hd4I04ZwmyxTudFEGYfR3Z3Zl0KIt8rdqSVm6cIVqDftbSdAfW6OAAcYS6vdMXaGdW78/WeTC5KcMgUIC+Qa9TAfBgloLvEAAETMdo5OQcIIHxpmQTNfQCXfYx2YFmAXRYOi4dmI6MPf/8888eJBjWAQbW6Ua+DoUoCRhSPyz3pRw0anQjQIZGTJqAz1hsogZroC7m0B0sbZn6ARCwIzM+9AnqMRVytKFUWtbrg0CBh/DNAMaGocAQgzE1HZ8/Kp91CBiGRqdFxxC61mYTmnKSH8BhaKjJDmIsAJu5K0UZMmibSllY/BITqRjb6y9TM2cOKAM4sATNEFjkBPhgr7HYRC3WIOUfa71Dqp0CEhK0TQFq7MoKRhYu0eH1VL3cwy+2h03kaA/6/iHHg0GBh19zzTV9ARDTKDTeCgZBofXiC7yQGIQGIF4NBAVJ3WBBYPee2P+19AL9DPJIRwL1KVNJsLAAN12eiz01+3Lj8D/XqQdWlsIGaJjUCWsYWIXqC9qrUUehco3FJmqxBimbdgKUP8cJlLZBABQnKOwLcBDHqMGW73KgGSBsU27YMq8LsD6BvM4RqoACGcfjQ0UBiBtuuCE4nkVk1MbBQAAJ3onO5XpB1ygplHa1idp6gc5PCTvIZQH6eRzn2kvuh5ndfPPN3dVXX93PpuiGKXHcX+qUcTH34tFgJLFQk03UZg3k26I7pNoXIBEKIXtpZ+i7F2d18ODBvm74AjhAPGeoBgq5hXANZfV87nNCSC4oDUVmXIy3qBV4ppUd0PlkRiCkBVjyhaiomdVY7yyE8oLn07qDC76h+4ayidqsgXyK7sD4HuZKvdBeSnWtELOi7rUDDNloaednAwUM4bIGMY47Rta6g8QJ/dL58WwotrwEREXXnOmIsYOhLMBXJtcWvjhTntNjZFd3sOSjhE3UYg0+FgAoMJzCeaBdARjWoG0B1dfsy3V61jSXEG9WUBADhAxIY7B6x5heEGITeHvrugkfO6jFAsQO8suzsElKL5D4c/yGvGNJXqxsIoc15NZ5ju7g6gWaNa0qO9D1tghQIEMh1sA1DO3THYQGlqwv8HkNqJ5vpgN2wGfaUPh96wJ8MwLayNbjUDmt988RLzSOHpKXGJtgrQvMjyGh7oyp+gQkLCGkO1jKGXJulucuKc5iQEGMEjOseFAoHyvCWPtQSy9wPQtDD9JH+GE5N0ud3XUBkuehv3PrBUPzL/eX6g5yf+xXswm0gDvvvLNjJSbT4dB/WFUO84s9i2vicAAgaWuhmZh1YAfaHosDBTIXYg2a4sEO2Irdt95BF9By7NMCaGiyrh4hSq9K87EJy3PcOEvTC9z8lf6vx9oluoP7XB8LoN6ZsWITmUOHDnXPPPNM1VWYugzUPe2NP9YXaN0h5sTccqzK/4sEBTGeGBzVGy8tlaKFxxzdQdIF2emQNFh3RoDzDCM4T9o6uGwCL5K7ClPYzpL1Al3mIcclukOJjUVrQOwbugozphdop8SiIuqetkJ7WqewWFAQ+oY3wBMwZIgZn2s+3UFYAMtz3XcEXC0gNrMQqnSfF/NpE6H8hdJdp/Ox8XjKfoCEJfhmKGLaBHUt7SmWP9+zAR/eSWBIWWv46nvOXOcWBwoIPSA/wp42uLAG6FssQPvw8rz1x3iT12pTWgANz7ruIPZsrrmejmEIeWFxCkwH/WCjBmyDUMgYnfdm6FS1tQBhDXR6X9DaBEzvvvvu64cgaEgMC7V46d4PiAD4wg7EcVGvsFlmwNYhLAYUNDWjYn1LUV2tIcUCYA76nQA97JDKK2EHcm/sV+sF5MP3xlwtbSKWjzmvxViAzOL43rMYmmcfa9Bpar2A3algkbQ5nAf5walQZ5pNpJwSgAAwyBBX6w762atwXA0UMChbh/OCDevqWWvP+CwVYusL3HtBajobFce7FaB8igWQhk93qMkOJJ+kSeNJ6QUumyjRJuSZll9oNPbi5Si2Xst5rdqSPnEok7zKjSe1lqlEd7DmyWUNMb1ApwloiDZBW2M7NFgNbJK2FGMT2rkxzPA5N/0sjlk4deGFF/Z1s2XLlp5FuXGm/L8KKJx11ln967cgrgTUYc7v3btXTh35tdCuFAsQQVCo3JHEIwcyrme1I3See2sESZcGRMPBQ+YGobXcX3OmgxkU3rZjOCYB27HRB+dL8ko6MRYAOAASOSF3XG9Nm7wwhMOB0CYpuzUIOwBcAJQUm9DphtY76Dikx8tqvEUM2BDoG+SXF6IY+s4RBoMC3xTAW4cCjXLnzp395ZBewEVhAdA2d0aACsGj+IJUXEpr4F4aKp0OT86cc8qj+56nz9HgrCsu9X2W4xpsghegrrrqquDjAHEaZSqUsoBUuqHrVo8eup/zLgOhjTKFHdIadFq0RRxGzOFoNsGQIbTfRMgBAk50/BiTgD3MAQyDQIE37tgrLxWgq8wgQClBR7wMHcoyI5BKm+uu1uC7J6QdUDkp3cFNz73HvT7W/zlsAg0DppYKdJYLLrjgqGi1WcBRiWf8o8f+OAs6ayroe9z3EVJaA2nnOBmdF8tMh9YdNm/ebBIm13aLdxrZpk2bjij80GyLFqCNbjn2VaiwA9+6A52mT3fQ10mH9IeyC53m0OMYm2ALcViRJTCMQPjDM1q1AEu6teK4Xl+otk4/h13gmFzWYGEH+nmW4xCbYPMbWIAlEJdP/k0ZipkCdJ1tvKyBfQDddQHWe3PiadZAQ4fW0QisgcaBVxJ9AHTX/wNwSw7CJthS3xpYyo2QVqIFWJ9RI56rO8CG+EMrwMnk6AWaNdBOWAdjGYIOKYewCUR4VmBag4XxWdOyxCsGBcbSuVu8I6BN8QcQ8IFbdhZi2FLyTBRhvvFHGlQi4k9JOnPdk7Obs2zxPldec59L/bK8GafELkWsR4HB5aaD+Erdkg5j99z7S+OzRWHONmswuSlDMSjgVfgcnDXQSFmMNDZb0NqBZg2W8ShlcfUCvJPvnLXcU8YTlsCwIQcU2C0L8MRjLpkt+PQCfc6qO1AneqipWUNsunFIXQpLgLVib8vnFnke7ZZ9UKcMxaBAJq1bvCP4QIGoNP5yZhesxohpB7oB+NKz6gUp3cGX9ljnYnoClJqGp6chY/lgBkK+SeDTFeYeMln0AovugA1i2oFPa4jZLXYtpCcAvMxWMGtnCTAiK4BY0rPEGQQKLN+FYqcCC5oAAugWq76oZFmHgJFS7ySk0tfsIBTXxxpc/cDa+EvvC+XNcl6zAOyIIEgHjnl3i3KNlsAryG4oeZ6bxpD/Xf3AqhfE7ks5B/Jbwho0C0DbQI+iveMAyTftRabjqTcYM94fcIgFpjMtU8axNEquDQIFHnj++ef347vQw5nu0lvAywpGGjbCDpUoAeNhRCubiLEDSdP9pWEwfmT3XMam7CRNpZYEK8PITTvFAqzghZgVE6l4B8HyZWryXytPKVtYPX4qHa4Lw0BERMVn6pk2Zgkx1hBiAUyxM/zSQxBZ4QhrI029LgHQph/4AvdxHQCZOgwGBTLM7s3QITo/AiTG5xwox4smvkChWXcuaxe0sSR+jE3AOEgbQ1uDaANUEPfGFqdY05R4kjZKOLqJBjuJE/od0yvjsagH1pTQAGlkbMXPcucrrrgilCXT+Zr5LtUGUhnFCQB+AAMeHIdjBQZYA1OX/PEiV4gF+PKg1yTg/PD6voBTZWkz633QgnBUvC5Af9IrhH33jnWuCihI5kBjwIB19iEElLjyK7SKjkqDBSxigesACQ1bKjq25iHmzS10MpYX3zU8RWyV41Qe180bAMhyWtR2mBL5qB1KyibenNkD6kN72SH5o+NTZg38FhbiYwF0WNobwBDLH44AAGBYQJsEGCwB8GEZNsM43rMAuOYMVUFhSEFAUhoFYCK6g5ueTzsIsQnYCuAhCByi3D6twX1uyf80SiqX55MP0VQ4pqHGtICS5y31Hh+bkLcJGcJR37CsmiEF9qI7wABwLNKJfVqA5CumNYhjo24tjk3SXOrvYkBBG8jVHUB4qBUdi8qJBTw18fCGVDgeiMqOsQnSSzWk2DPlms9TSsNDQSYveMaNGqhHgBI6zzoQqDIdCWCgfpk1CYG3xWY+dqDv87EAGCoMV7Z4jzEB0tJaA6wVEKAMrl6gn7tqx4sEBTEiRqfh8GIPHdynO0jc2Jg+xCaoUL1uIpc1+LxgjAXE8ijlWMfflF6Qa0efjVxQt8wI6HRSedRxATZ2XmL2DcYX0gv0Pat0vFhQwOsKO6AzgcSu7kAcGgMemM6Y44XxKqRLBcMsNJsQEVMve/WxgFIPl9IdVqkBxfJaqhekbA14SxB2ACOjLgF6hgM4E6a6fTMCcq/vN6Q7+PQCzRp8aa3quUWCgk87wMCiOwAODA/4diXAMYRySsW5bIL0WcbNOgzm8qGYMRYg6eT8iu4AINUqR87zx4gr4/WS9xFi+dFsgg7PcIyFPbwajjiHYwAUAHrsOjRIORga8Czamk8viGkNQ/Mw1/2LAgXNDnzaAedE2RfhDm/trnfINWbIM6FDAAbsCcE4WLMJvCBepUbg+aWMp8bza6QR8rA10na1AARKlmXzBxhQT642odlESR60XgDA8cezqCef7rBOrGExoBBiB1RobCyuK88q9mivA6jQoGIsQLQGGh8aRI1VmKGGGitr6J45z+eMxS35TGkBsAH0JT20k3Rz61Xu07+x9QW6rO5eDaSxLqxhdlAIsYNc7ynTQj7doda6flfMoiGINsEctqtNDGETS9cdSvUC3QE5dllASAsQ7QDwtg4PQgxQZjqETfj0Ajef+v8UK1p11jArKPjYARWONygdZ9PIoHosBkEhZjwoLABwoKEMCcIaQo3T1SZo5Ahf7kyHNQ9D7WF9jiWejLNL9YIUCwh1dh8YW/Lri6PZBAyRGQQ2MWFIAgPMaR8xe6wya5gFFDC8zCyIdqD1Auv7CClPQCVD+WvoDm4Dy2moNHaGBUPYBGXlmSUzLW7ec/9PecZQelYWELofuwG+IQAO3Zc6r4ectEMZEvKcUm0ixJxWkTVUAwW8IXsxsiEE6+pRhTG2G1x2kDOG1ijvagExFqAbgVV3cPPt+z/FGnz3cG4om8ixGc+j/Cw/521V1tTzkhrj8lTQY2jYW8iTk04pCwjlIQd0Q2m452N6gY4ba2cM62JsQttMdIcUa2Cma/v27X3f4QU1lqPDQuYKVUCBxrZnz57eG0pBQF2+M7B79+7+lGYHoGrK66VYABWXG0K6Q246bvwaDbiETVh0BxZ+AdKAtgQaKVOtAARpuCHk9XS8oSxAp6WPa7ODXL1A50WOU21RtAmJz6+PXbmsAZbCy2pMreqFeQxleEOSqfA5wmBQIPNME4YCBWaTSsbWxAvpBTF0jrGA0HNj52W9A2wj9J5F7H7ftVLW4EuLczlsgo7ksyvsgO87hAKMg0aJPWLj49osIJSfGuAqaYsDYDjgW18g8Up/Y+1VswnXrgwh0WR4rZ2+45velDyxbdscwDAIFGAHoVejpWD8sm0bm4MCDOgFGLTWjIB+Tsmx+57FUNpWs2G75UmxCYBJGBhr+S17JbDqj3gC2rCIsViAWx75vyY70ENF6Lv2wPK8MX4tbEIzMLbL87E0N28Ax9RhECjgZSyBSj/xxBN7xM7RAixp14qjG9NQ3aE2awiVMcYmtm3b1rOH0L36PPUIi0OUZdaHqVWYB0yCuhsz1AJRq14wZlnctENsgjdnrfub4nRZPDdlKAYFFo/kbvE+9C24KQwjtNNd71Dy7FoNPufZwiZytnhH2GK/ADxXjM7m5CMVtwY7qKEXpPJZ87qwCYZ1FqFXnh3bPUvi1PwtBgU8S84W7zAFPNCq/DHuY1t3NBF2lEL8Kck7Y1ruZz4cil6SRsk9Obs5s66fzVdKnlNyD3ZlOMlvyf3YkTzjQVmPQgcrSWeue5ilW9st3q1fuQHFjjnmmJ6i4j2h6kPH7jWRMZWW6A4o+KXvWUzNGphZsAYAgdmiscNQdqCHeFPqBTXsAgOlHZFvxF9AzRIYirLJ65ShmCmQSesW7yiuKKmsUWCsCkKD7uyOhJEwFgr30oNulCW6w1RaA3ZkytFKUacQs4aA4hL1glhbxeHRVigzjJrXull0xp6knGMYbR0SsNqSl/GmDINAAeqGl0kF5smpWB1cw2E0jIcRMdyS2cRQ3WFIB9E2TB1bhGCGNYxxxwql7GCV9ALNAnB04vBwgDhCrrsBoZFhUCyw1sFSh7E0Sq4NAgUeSOFi6ijUB/CwBIy3SmxiyHqHKVgDYikLy8inLyAuWj2W7/7UuRLwow3AHsdaX5DKc+q668xcFpDjzBjiUU5fYPoSBgewTB0GgwIZ5ruNFABRDqTEUHv37u1RjoZZGtwKWDKbgAkxpZerO5R0nBx7ohVQN7t27ep3riKPCJ8sR2edyRihhB3oodmS9IISFpBjU5wqwIzGwEI6BG2ESNg1w4w5QhVQkIxDm9jenXEQBRwjLJ1N6MZt1R2mYA0sqd2/f39fPyxsGivkgtyS9ALXCQ1hATn2pU3zNi9L0gFsbDhnqAoKcxTErcilsAkqGlDIWe+Q26HmsHfomTnsgDpjFgdWBXNx9abQM2qfH5sF1M7vVOmtPCj4DLUkNpGrO0zBGnw2G3LOCmbUy1x6ges8pmIBQ+w6171rCQquMd0GMRebyNEdrB3NLeuU/1vZgR5STaUXNBZQ3hI2BCj4zDMnm9CdJKY7LJk1WEBrKr3ABf3GAnwt3n5uw4KCayJfw6JxjbluAmCy6A6WDuiWZ6z/U+yA4dLYekFjAWPV7v/SbaAQse9UbMLVHXzC2xJYQwycsJXWC3gFu0bwgTXDvzHBuka+VzmNBgoZtedroLXZREp3iHXMjKJkRY2xAz0UqqEXNBaQVTWjRG6gMNCsY7EJ3dlc3WFK1hACoRp6gQ9kGwsY2CAr3N5AoYIRdRK+hj6ETQA6Id0h1GF1fkqPfexgqF7QWEBpbUx7XwOFCexdg02EdIcxWIMLNuQ/Vy/wgWNjARM0tgqPaKBQwYi5Sfg6TA6b8OkObkfWeeLlGt5F4X0HXsJhO3G+kekGlx3oIUxKL2gswLXm6v7fQGEhdVfCJnSnZYjBZri8AMUfHZzAa9FszMpyYgmwC3Y+4kUp3kolaFBJ6QU+UGssQKy7+r8NFBZah76OF2ITAIrWHdjMg5fTdu7cGd0yDwaxefPmftMbXmDjNV3f+wiNBSy0kYyUrQYKIxl2jGRTbAJ2gMdnx2z2SmC4kAp8E2HTpk1H9i9gfQEMhHT0rkFtXUDKkutzvYHCCtdljE1s3bq1Zw+W4jGMgClYdw2ypNnirK4FGiisbt15cy5sImeLd3bOglnAEACaFja2BRoorGn95+ztx64/fKCkhWYBLNBAYU3bgUVPkKKz5TiaQQvNAliggcKatgP2zbR855Pi57CKNTVXK5ayQAMFZYx1O7R09gMHDvR7A65b2Vt5yi3QQKHcdou/k3UNDCNCH9rhmw9btmxZfDlaBqe1QAOFae09+dPYxZmlzTt27OiHE6w83LdvX38OLaGFZgHXAg0UXIus6f+HDx/uP8rD9vt8br6FZoGQBRoohCzTzjcLbFALNFDYoBXfit0sELJAA4WQZdr5ZoENaoEGChu04luxmwVCFmigELJMO98ssEEt0EBhg1Z8K3azQMgC/wWiUsOufR+ctgAAAABJRU5ErkJggg==;" vertex="1" parent="1">
          <mxGeometry x="149" y="194" width="261" height="117" as="geometry" />
        </mxCell>
      </root>
    </mxGraphModel>
  </diagram>
</mxfile>
